# xmcd CD database file
#
# Track frame offsets:
#	150
#	20392
#	37515
#	60737
#	73907
#	93455
#
# Disc length: 1444 seconds
#
# Revision: 0
# Processed by: cddbd v1.5.1PL0 Copyright (c) Steve Scherf et al.
# Submitted via: CDex 1.51
#
DISCID=4505a206
DTITLE=奥村 愛子 - いっさいがっさい
DYEAR=2004
DGENRE=JPop
TTITLE0=いっさいがっさい（密命ヴァージョン）
TTITLE1=いろのない日記帳
TTITLE2=わたしはずるい
TTITLE3=ドドンパ
TTITLE4=メトロノーム
TTITLE5=他人の関係
EXTD=YEAR: 200401
EXTT0=
EXTT1=
EXTT2=
EXTT3=
EXTT4=
EXTT5=
PLAYORDER=
